<?xml version="1.0" encoding="UTF-8"?>
<svg width="200" height="300" viewBox="0 0 200 300" xmlns="http://www.w3.org/2000/svg">
  <!-- Background decorative elements -->
  <circle cx="50" cy="150" r="40" fill="#f0f4ff" />
  <circle cx="150" cy="80" r="25" fill="#e6eeff" />
  <circle cx="120" cy="220" r="30" fill="#eef2ff" />
  
  <!-- Question mark shape -->
  <path d="M90,70 C60,70 40,90 40,120 C40,140 50,155 70,165 L80,170 L80,190 L100,190 L100,160 L90,155 C75,145 70,135 70,120 C70,105 80,95 90,95 C100,95 110,105 110,120 L140,120 C140,90 120,70 90,70 Z" fill="#6366F1" />
  <circle cx="90" cy="220" r="15" fill="#6366F1" />
  
  <!-- Decorative dots -->
  <circle cx="40" cy="50" r="5" fill="#8B5CF6" />
  <circle cx="160" cy="140" r="7" fill="#8B5CF6" />
  <circle cx="30" cy="200" r="6" fill="#8B5CF6" />
  <circle cx="150" cy="240" r="4" fill="#8B5CF6" />
  
  <!-- Small decorative lines -->
  <line x1="20" y1="100" x2="40" y2="100" stroke="#6366F1" stroke-width="3" />
  <line x1="160" y1="60" x2="180" y2="60" stroke="#6366F1" stroke-width="3" />
  <line x1="140" y1="200" x2="160" y2="200" stroke="#6366F1" stroke-width="3" />
</svg>