<?xml version="1.0" encoding="UTF-8"?>
<svg width="200" height="300" viewBox="0 0 200 300" xmlns="http://www.w3.org/2000/svg">
  <!-- Background decorative elements -->
  <circle cx="100" cy="150" r="40" fill="#f0f4ff" />
  <circle cx="50" cy="80" r="25" fill="#e6eeff" />
  <circle cx="150" cy="220" r="30" fill="#eef2ff" />
  
  <!-- Speech bubbles -->
  <path d="M60,100 L140,100 C150,100 160,110 160,120 L160,160 C160,170 150,180 140,180 L120,180 L110,200 L100,180 L60,180 C50,180 40,170 40,160 L40,120 C40,110 50,100 60,100 Z" fill="#2563EB" />
  <path d="M80,130 L120,130" stroke="white" stroke-width="3" stroke-linecap="round" />
  <path d="M80,150 L120,150" stroke="white" stroke-width="3" stroke-linecap="round" />
  
  <path d="M120,40 L160,40 C165,40 170,45 170,50 L170,70 C170,75 165,80 160,80 L150,80 L145,90 L140,80 L120,80 C115,80 110,75 110,70 L110,50 C110,45 115,40 120,40 Z" fill="#10B981" />
  <path d="M130,60 L150,60" stroke="white" stroke-width="2" stroke-linecap="round" />
  
  <path d="M30,220 L80,220 C85,220 90,225 90,230 L90,250 C90,255 85,260 80,260 L70,260 L65,270 L60,260 L30,260 C25,260 20,255 20,250 L20,230 C20,225 25,220 30,220 Z" fill="#F97316" />
  <path d="M40,240 L70,240" stroke="white" stroke-width="2" stroke-linecap="round" />
  
  <!-- Decorative dots -->
  <circle cx="180" cy="50" r="5" fill="#8B5CF6" />
  <circle cx="20" cy="140" r="7" fill="#8B5CF6" />
  <circle cx="170" cy="200" r="6" fill="#8B5CF6" />
  <circle cx="50" cy="270" r="4" fill="#8B5CF6" />
  
  <!-- Small decorative lines -->
  <line x1="160" y1="100" x2="180" y2="100" stroke="#6366F1" stroke-width="3" />
  <line x1="20" y1="60" x2="40" y2="60" stroke="#6366F1" stroke-width="3" />
  <line x1="140" y1="250" x2="160" y2="250" stroke="#6366F1" stroke-width="3" />
</svg>